<svg width="50" height="50" viewBox="0 0 50 50" fill="none" xmlns="http://www.w3.org/2000/svg">
<rect width="50" height="50" rx="8" fill="#0D1B2A"/>
<g clip-path="url(#clip0_182_6772)">
<path d="M28.3933 28.6296L25.154 30.8979L19.4874 22.7998C19.3283 22.5738 19.0731 22.444 18.7968 22.444C18.7592 22.444 18.7215 22.444 18.6797 22.444H14.754C14.2937 22.444 13.917 22.8207 13.917 23.281V27.7549C13.917 28.2153 13.5404 28.5919 13.08 28.5919H10.8368C10.3764 28.5919 9.99976 28.2153 9.99976 27.7549V20.0585C9.99976 19.5982 10.3764 19.2215 10.8368 19.2215H18.4997C19.6757 19.2215 20.655 19.0373 21.4335 18.6942C22.9443 18.0246 23.7143 16.7481 23.7143 14.9987C23.7143 12.3496 21.9357 10.8136 18.4997 10.8136H10.8368C10.3764 10.8136 9.99976 10.437 9.99976 9.9766V8.33604C9.99976 7.87568 10.3764 7.49902 10.8368 7.49902H18.6797C24.2249 7.49902 27.6609 10.3282 27.6609 14.9987C27.6609 18.0957 26.1333 20.3975 23.4339 21.5484L28.3933 28.6296Z" fill="white"/>
<path d="M31.8505 33.5723L38.1031 42.4991H33.7171C33.445 42.4991 33.1898 42.3652 33.0349 42.1434L28.6196 35.8364L31.8547 33.5723H31.8505Z" fill="white"/>
<path d="M31.2645 32.7363L28.0294 35.0004L28.0168 34.9878L25.2086 36.9548L25.217 36.9674L19.2156 41.1734L14.2144 42.4917C14.0261 42.5419 13.8754 42.3285 13.9884 42.1695L16.9389 37.9216L22.4088 34.0922L25.7527 31.7486L28.9878 29.4844L31.4863 27.7351L35.458 24.952C35.8388 24.6841 36.3619 24.7762 36.6298 25.1612L37.9397 27.032C38.2076 27.417 38.1155 27.9359 37.7346 28.2038L34.2945 30.6102L34.2861 30.5977L31.2561 32.7195L31.2645 32.7363Z" fill="#1A73E8"/>
<path d="M41.1537 25.8093L39.2662 27.1318L36.9895 23.8799L38.8728 22.5574C39.2578 22.2896 39.7768 22.3817 40.0446 22.7667L41.3587 24.6416C41.6266 25.0225 41.5345 25.5414 41.1537 25.8093Z" fill="#1A73E8"/>
<path d="M28.0167 34.9893L28.0293 35.0018L25.2169 36.9688L25.2085 36.9563L28.0167 34.9893Z" fill="white"/>
<path d="M34.2942 30.6112L31.2642 32.7372L31.2559 32.7205L34.2859 30.5986L34.2942 30.6112Z" fill="white"/>
</g>
<defs>
<clipPath id="clip0_182_6772">
<rect width="31.5138" height="35" fill="white" transform="translate(9.99976 7.49902)"/>
</clipPath>
</defs>
</svg>
